<svg width="22" height="22" viewBox="0 0 22 22" fill="none" xmlns="http://www.w3.org/2000/svg">
<path d="M0.499985 2C0.499985 1.60218 0.65802 1.22064 0.939324 0.93934C1.22063 0.658035 1.60216 0.5 1.99998 0.5H4.99998C5.39781 0.5 5.77934 0.658035 6.06064 0.93934C6.34195 1.22064 6.49998 1.60218 6.49998 2V5C6.49998 5.39782 6.34195 5.77936 6.06064 6.06066C5.77934 6.34196 5.39781 6.5 4.99998 6.5H1.99998C1.60216 6.5 1.22063 6.34196 0.939324 6.06066C0.65802 5.77936 0.499985 5.39782 0.499985 5V2ZM7.99998 2C7.99998 1.60218 8.15802 1.22064 8.43932 0.93934C8.72063 0.658035 9.10216 0.5 9.49998 0.5H12.5C12.8978 0.5 13.2793 0.658035 13.5606 0.93934C13.8419 1.22064 14 1.60218 14 2V5C14 5.39782 13.8419 5.77936 13.5606 6.06066C13.2793 6.34196 12.8978 6.5 12.5 6.5H9.49998C9.10216 6.5 8.72063 6.34196 8.43932 6.06066C8.15802 5.77936 7.99998 5.39782 7.99998 5V2ZM15.5 2C15.5 1.60218 15.658 1.22064 15.9393 0.93934C16.2206 0.658035 16.6022 0.5 17 0.5H20C20.3978 0.5 20.7793 0.658035 21.0606 0.93934C21.3419 1.22064 21.5 1.60218 21.5 2V5C21.5 5.39782 21.3419 5.77936 21.0606 6.06066C20.7793 6.34196 20.3978 6.5 20 6.5H17C16.6022 6.5 16.2206 6.34196 15.9393 6.06066C15.658 5.77936 15.5 5.39782 15.5 5V2ZM0.499985 9.5C0.499985 9.10218 0.65802 8.72064 0.939324 8.43934C1.22063 8.15804 1.60216 8 1.99998 8H4.99998C5.39781 8 5.77934 8.15804 6.06064 8.43934C6.34195 8.72064 6.49998 9.10218 6.49998 9.5V12.5C6.49998 12.8978 6.34195 13.2794 6.06064 13.5607C5.77934 13.842 5.39781 14 4.99998 14H1.99998C1.60216 14 1.22063 13.842 0.939324 13.5607C0.65802 13.2794 0.499985 12.8978 0.499985 12.5V9.5ZM7.99998 9.5C7.99998 9.10218 8.15802 8.72064 8.43932 8.43934C8.72063 8.15804 9.10216 8 9.49998 8H12.5C12.8978 8 13.2793 8.15804 13.5606 8.43934C13.8419 8.72064 14 9.10218 14 9.5V12.5C14 12.8978 13.8419 13.2794 13.5606 13.5607C13.2793 13.842 12.8978 14 12.5 14H9.49998C9.10216 14 8.72063 13.842 8.43932 13.5607C8.15802 13.2794 7.99998 12.8978 7.99998 12.5V9.5ZM15.5 9.5C15.5 9.10218 15.658 8.72064 15.9393 8.43934C16.2206 8.15804 16.6022 8 17 8H20C20.3978 8 20.7793 8.15804 21.0606 8.43934C21.3419 8.72064 21.5 9.10218 21.5 9.5V12.5C21.5 12.8978 21.3419 13.2794 21.0606 13.5607C20.7793 13.842 20.3978 14 20 14H17C16.6022 14 16.2206 13.842 15.9393 13.5607C15.658 13.2794 15.5 12.8978 15.5 12.5V9.5ZM0.499985 17C0.499985 16.6022 0.65802 16.2206 0.939324 15.9393C1.22063 15.658 1.60216 15.5 1.99998 15.5H4.99998C5.39781 15.5 5.77934 15.658 6.06064 15.9393C6.34195 16.2206 6.49998 16.6022 6.49998 17V20C6.49998 20.3978 6.34195 20.7794 6.06064 21.0607C5.77934 21.342 5.39781 21.5 4.99998 21.5H1.99998C1.60216 21.5 1.22063 21.342 0.939324 21.0607C0.65802 20.7794 0.499985 20.3978 0.499985 20V17ZM7.99998 17C7.99998 16.6022 8.15802 16.2206 8.43932 15.9393C8.72063 15.658 9.10216 15.5 9.49998 15.5H12.5C12.8978 15.5 13.2793 15.658 13.5606 15.9393C13.8419 16.2206 14 16.6022 14 17V20C14 20.3978 13.8419 20.7794 13.5606 21.0607C13.2793 21.342 12.8978 21.5 12.5 21.5H9.49998C9.10216 21.5 8.72063 21.342 8.43932 21.0607C8.15802 20.7794 7.99998 20.3978 7.99998 20V17ZM15.5 17C15.5 16.6022 15.658 16.2206 15.9393 15.9393C16.2206 15.658 16.6022 15.5 17 15.5H20C20.3978 15.5 20.7793 15.658 21.0606 15.9393C21.3419 16.2206 21.5 16.6022 21.5 17V20C21.5 20.3978 21.3419 20.7794 21.0606 21.0607C20.7793 21.342 20.3978 21.5 20 21.5H17C16.6022 21.5 16.2206 21.342 15.9393 21.0607C15.658 20.7794 15.5 20.3978 15.5 20V17Z" fill="#6C7275"/>
</svg>
