<svg  width="24" height="24" viewBox="0 0 24 24" fill="none" xmlns="http://www.w3.org/2000/svg">
<path d="M8.74998 13C9.34672 13 9.91902 13.2371 10.341 13.659C10.7629 14.081 11 14.6533 11 15.25V18.75C11 19.3467 10.7629 19.919 10.341 20.341C9.91902 20.7629 9.34672 21 8.74998 21H5.24998C4.65325 21 4.08095 20.7629 3.65899 20.341C3.23704 19.919 2.99998 19.3467 2.99998 18.75V15.25C2.99998 14.6533 3.23704 14.081 3.65899 13.659C4.08095 13.2371 4.65325 13 5.24998 13H8.74998ZM18.75 13C19.3467 13 19.919 13.2371 20.341 13.659C20.7629 14.081 21 14.6533 21 15.25V18.75C21 19.3467 20.7629 19.919 20.341 20.341C19.919 20.7629 19.3467 21 18.75 21H15.25C14.6532 21 14.081 20.7629 13.659 20.341C13.237 19.919 13 19.3467 13 18.75V15.25C13 14.6533 13.237 14.081 13.659 13.659C14.081 13.2371 14.6532 13 15.25 13H18.75ZM8.74998 3C9.34672 3 9.91902 3.23705 10.341 3.65901C10.7629 4.08097 11 4.65326 11 5.25V8.75C11 9.34674 10.7629 9.91903 10.341 10.341C9.91902 10.7629 9.34672 11 8.74998 11H5.24998C4.65325 11 4.08095 10.7629 3.65899 10.341C3.23704 9.91903 2.99998 9.34674 2.99998 8.75V5.25C2.99998 4.65326 3.23704 4.08097 3.65899 3.65901C4.08095 3.23705 4.65325 3 5.24998 3H8.74998ZM18.75 3C19.3467 3 19.919 3.23705 20.341 3.65901C20.7629 4.08097 21 4.65326 21 5.25V8.75C21 9.34674 20.7629 9.91903 20.341 10.341C19.919 10.7629 19.3467 11 18.75 11H15.25C14.6532 11 14.081 10.7629 13.659 10.341C13.237 9.91903 13 9.34674 13 8.75V5.25C13 4.65326 13.237 4.08097 13.659 3.65901C14.081 3.23705 14.6532 3 15.25 3H18.75Z" fill="#6C7275"/>
<path d="M2.99998 6H10.998V18H2.99998V6Z" fill="#6C7275"/>
<path d="M13.0019 6H21V18H13.0019V6Z" fill="#6C7275"/>
</svg>
