<svg width="24" height="25" viewBox="0 0 24 25" fill="none" xmlns="http://www.w3.org/2000/svg">
<path d="M8.74998 13.5C9.34672 13.5 9.91902 13.7371 10.341 14.159C10.7629 14.581 11 15.1533 11 15.75V19.25C11 19.8467 10.7629 20.419 10.341 20.841C9.91902 21.2629 9.34672 21.5 8.74998 21.5H5.24998C4.65325 21.5 4.08095 21.2629 3.65899 20.841C3.23704 20.419 2.99998 19.8467 2.99998 19.25V15.75C2.99998 15.1533 3.23704 14.581 3.65899 14.159C4.08095 13.7371 4.65325 13.5 5.24998 13.5H8.74998ZM18.75 13.5C19.3467 13.5 19.919 13.7371 20.341 14.159C20.7629 14.581 21 15.1533 21 15.75V19.25C21 19.8467 20.7629 20.419 20.341 20.841C19.919 21.2629 19.3467 21.5 18.75 21.5H15.25C14.6532 21.5 14.081 21.2629 13.659 20.841C13.237 20.419 13 19.8467 13 19.25V15.75C13 15.1533 13.237 14.581 13.659 14.159C14.081 13.7371 14.6532 13.5 15.25 13.5H18.75ZM8.74998 3.5C9.34672 3.5 9.91902 3.73705 10.341 4.15901C10.7629 4.58097 11 5.15326 11 5.75V9.25C11 9.84674 10.7629 10.419 10.341 10.841C9.91902 11.2629 9.34672 11.5 8.74998 11.5H5.24998C4.65325 11.5 4.08095 11.2629 3.65899 10.841C3.23704 10.419 2.99998 9.84674 2.99998 9.25V5.75C2.99998 5.15326 3.23704 4.58097 3.65899 4.15901C4.08095 3.73705 4.65325 3.5 5.24998 3.5H8.74998ZM18.75 3.5C19.3467 3.5 19.919 3.73705 20.341 4.15901C20.7629 4.58097 21 5.15326 21 5.75V9.25C21 9.84674 20.7629 10.419 20.341 10.841C19.919 11.2629 19.3467 11.5 18.75 11.5H15.25C14.6532 11.5 14.081 11.2629 13.659 10.841C13.237 10.419 13 9.84674 13 9.25V5.75C13 5.15326 13.237 4.58097 13.659 4.15901C14.081 3.73705 14.6532 3.5 15.25 3.5H18.75Z" fill="#6C7275"/>
</svg>
